# xmcd
#
# Track frame offsets:
#	150
#	22411
#	37559
#	55130
#	72263
#	83154
#	107055
#	129282
#	149567
#	166394
#	184154
#	204660
#	228853
#	244786
#	266000
#
# Disc length: 3805 seconds
#
# Revision: 1
# Processed by: cddbd v1.5.2PL0 Copyright (c) Steve Scherf et al.
# Submitted via: audiograbber 1.83.01
#
DISCID=d00edb0f
DTITLE=Willi Resetarits und Stubnblues - No so vü
DYEAR=2009
DGENRE=Stubnblues
TTITLE0=no so vü
TTITLE1=floridsdorfer bahnhof
TTITLE2=liad - da r ochtadreiska
TTITLE3=mei schlof
TTITLE4=lipo ti je cuti
TTITLE5=zum letztn mal
TTITLE6=pass guad auf
TTITLE7=spat und später
TTITLE8=ballade fon da zuagschbeadn gredenz
TTITLE9=lauwoam oda hoibwoa (spuan)
TTITLE10=hammerschmidgossn
TTITLE11=echt baff
TTITLE12=hotel orient/ternjice
TTITLE13=polvere di gesso
TTITLE14=winta
EXTD=
EXTT0=
EXTT1=
EXTT2=
EXTT3=
EXTT4=
EXTT5=
EXTT6=
EXTT7=
EXTT8=
EXTT9=
EXTT10=
EXTT11=
EXTT12=
EXTT13=
EXTT14=
PLAYORDER=
